# xmcd CD database file
#
# Track frame offsets:
#	180
#	16353
#	30836
#	45184
#	70464
#	90575
#	107975
#	120692
#	142054
#	165839
#	179098
#	190992
#	211516
#	228459
#	252648
#	266466
#
# Disc length: 3729 seconds
#
# Revision: 0
# Processed by: cddbd v1.5.1PL0 Copyright (c) Steve Scherf et al.
# Submitted via: CDex 1.51
#
DISCID=d80e8f10
DTITLE=Backbeat Drivers - The Emperor's New Blues
DYEAR=2000
DGENRE=Blues
TTITLE0=The Emperor's New Blues
TTITLE1=Hundred Dollar Suit
TTITLE2=My Baby's a Painter
TTITLE3=Great Big Sky
TTITLE4=When it Falls
TTITLE5=Good Idea at the Time
TTITLE6=The Party's Started
TTITLE7=Pig Squadron
TTITLE8=Brown Water
TTITLE9=Return Ticket
TTITLE10=Be Careful What You Say
TTITLE11=What You Got
TTITLE12=Ice Age Blues
TTITLE13=Reinvent the Blues
TTITLE14=The Black Hat
TTITLE15=Trippin with Elvis
EXTD=YEAR: 2000
EXTT0=
EXTT1=
EXTT2=
EXTT3=
EXTT4=
EXTT5=
EXTT6=
EXTT7=
EXTT8=
EXTT9=
EXTT10=
EXTT11=
EXTT12=
EXTT13=
EXTT14=
EXTT15=
PLAYORDER=
